<svg xmlns="http://www.w3.org/2000/svg">
  <symbol viewBox="0 0 23 21" id="like-icon">
    <path
      d="m12.9636 3.78-.6272 3.045-.6273 2.625h9.0954v2.205L17.7727 18.9h-9.409V8.4l4.5999-4.62ZM2.0909 10.5v8.4-8.4ZM13.8 0 6.9 6.93c-.4182.315-.6273.84-.6273 1.47v10.5c0 1.155.941 2.1 2.091 2.1h9.409c.8364 0 1.5682-.525 1.8818-1.26l3.1364-7.455c.1046-.21.1046-.525.1046-.735v-2.1H23c0-1.155-.9409-2.1-2.0909-2.1h-6.5864l1.0455-4.83v-.315c0-.42-.2091-.84-.4182-1.155L13.8 0ZM4.1818 8.4H0V21h4.1818V8.4Z" />
  </symbol>

  <symbol viewBox="0 0 24 24" id="telegram-icon">
    <path
      d="m22.44 4.62-3.17 14.95c-.24 1.05-.86 1.31-1.75.82l-4.83-3.56-2.33 2.24c-.25.26-.47.47-.97.47l.35-4.91 8.95-8.09c.39-.35-.09-.54-.6-.2L7.01 13.32l-4.76-1.49c-1.04-.32-1.05-1.03.22-1.53L21.1 3.11c.87-.32 1.62.2 1.34 1.51Z" fill="#fff" />
  </symbol>

  <symbol viewBox="0 0 24 24" id="youtube-icon">
    <path
      d="M19.18 5H4.81C3.31 5 2 6.3 2 7.8v8.3C2 17.7 3.3 19 4.81 19h14.37A2.8 2.8 0 0 0 22 16.2V7.8c.1-1.5-1.2-2.8-2.8-2.8ZM9.03 15.4V8.6l6.84 3.4-6.84 3.4Z" fill="#fff" />
  </symbol>

  <symbol viewBox="0 0 24 14" id="vk-icon">
    <path fill-rule="evenodd" clip-rule="evenodd"
      d="M23.45.95c.17-.55 0-.95-.8-.95h-2.62c-.67 0-.98.35-1.14.73 0 0-1.34 3.2-3.23 5.27-.61.6-.89.8-1.22.8-.17 0-.42-.2-.42-.74V.95c0-.66-.18-.95-.74-.95H9.15c-.42 0-.67.3-.67.6 0 .61.95.76 1.05 2.5v3.8c0 .84-.16.99-.5.99-.88 0-3.05-3.21-4.33-6.89-.25-.71-.5-1-1.17-1H.9C.15 0 0 .35 0 .73c0 .68.89 4.07 4.14 8.55C6.32 12.34 9.38 14 12.15 14c1.67 0 1.88-.37 1.88-1v-2.32c0-.73.16-.88.69-.88.38 0 1.05.2 2.61 1.67C19.11 13.22 19.4 14 20.41 14h2.62c.75 0 1.13-.37.91-1.1-.24-.72-1.09-1.77-2.21-3.02-.62-.7-1.54-1.47-1.81-1.86-.4-.49-.28-.7 0-1.14 0 0 3.2-4.43 3.53-5.93Z" fill="#fff" />
  </symbol>

  <symbol viewBox="0 0 60 60" id="html-academy">
    <path
      d="M30.2 5h-.2l-19.7 2.1v36.2l19.7 11.7 19.7-11.7v-36.2l-19.5-2.1zm17 36.8l-17.2 10.2-17.2-10.2v-14.8l17.1 10.2v1.8l-11.7-7v1.8l11.8 7.1v1.9l-11.8-7v1.8l11.8 7 11.9-7.1v-7.6l5.3-3.2v15.1zm-.1-17l-4.7 2.8-2.2 1.3-10.3-6.1v1.8l8.8 5.3h-.1l-.2.1-1.3.7-7.3-4.3v1.8l5.8 3.4-1.4.9-4.3-2.6v1.8l2.9 1.7-2.9 1.7-17-10.1 17-10.2 17.2 10zm.1-1.8l-17.3-10.2-17.1 10.2v-13.6l17.2-1.8 17.2 1.8v13.6z" fill="currentColor"/>
  </symbol>

  <symbol viewBox="0 0 16 12" id="mail">
    <path
      d="M8 8c-.3 0-.5-.1-1-.3L0 4v7c0 .5.5 1 1 1h14c.5 0 1-.5 1-1V4L9 7.7c-.5.2-.7.3-1 .3Zm7-8H1C.5 0 0 .5 0 1v.8L8 6l8-4.2V1c0-.5-.5-1-1-1Z"/>
  </symbol>

  <symbol viewBox="0 0 18 18" id="phone">
    <path
      d="M3.6 7.8c1.4 2.8 3.8 5.1 6.6 6.6l2.2-2.2c.3-.3.7-.4 1-.2 1.1.4 2.3.6 3.6.6.6 0 1 .4 1 1V17c0 .6-.4 1-1 1C7.6 18 0 10.4 0 1c0-.6.4-1 1-1h3.5c.6 0 1 .4 1 1 0 1.2.2 2.4.6 3.6.1.3 0 .7-.2 1L3.6 7.8Z"/>
  </symbol>
</svg>
