<svg xmlns="http://www.w3.org/2000/svg" xmlns:xlink="http://www.w3.org/1999/xlink"><symbol id="burger" viewBox="0 0 82 68"><path d="M76.53 45.33H5.36c-2.53 0-4.53 1.97-4.53 4.24v3.45c0 2.27 2 4.14 4.53 4.14h1.05v.98c0 5.42 4.74 9.76 10.43 9.76h48.21c5.8 0 10.43-4.43 10.43-9.76v-.98h1.05c2.42 0 4.53-1.87 4.53-4.24v-3.45c0-2.17-2-4.14-4.53-4.14Zm-4.1 12.81c0 3.75-3.27 6.8-7.27 6.8H16.73c-4 0-7.26-3.05-7.26-6.8v-.98h62.95v.98Zm5.47-5.22c0 .7-.63 1.28-1.37 1.28H5.36c-.74 0-1.37-.59-1.37-1.28v-3.45c0-.59.63-1.18 1.37-1.18h71.27c.74 0 1.37.59 1.37 1.28v3.35h-.1ZM17.89 37.35l5.68 3.94 5.8-3.94 5.78 3.94 5.8-3.94 5.68 3.94 5.79-3.94 5.79 3.94 5.8-3.94 5.78 3.94 6.63-4.63-1.79-2.37-4.84 3.26L64 33.6l-5.79 3.95-5.79-3.95-5.8 3.95-5.68-3.95-5.79 3.95-5.79-3.95-5.79 3.95-5.68-3.95-5.8 3.95-4.83-3.26-1.9 2.37 6.74 4.63 5.79-3.94Zm57.59-6.7c0-.6.1-2.56 0-2.96C74.74 12.32 59.58 0 40.94 0 22.31 0 7.04 12.32 6.31 27.7v2.95h69.17ZM40.94 2.95C57.8 2.96 71.7 14 72.32 27.7H9.47C10.2 14 24.1 2.96 40.94 2.96Z" fill="#81B3D2"/><path d="M40.94 16.75c1.17 0 2.11-.88 2.11-1.97 0-1.09-.94-1.97-2.1-1.97-1.17 0-2.11.88-2.11 1.97 0 1.1.94 1.97 2.1 1.97Zm-8.42-4.83c1.16 0 2.1-.88 2.1-1.97 0-1.09-.93-1.97-2.1-1.97-1.16 0-2.1.88-2.1 1.97 0 1.1.94 1.97 2.1 1.97Zm16.85 0c1.16 0 2.1-.88 2.1-1.97 0-1.09-.94-1.97-2.1-1.97-1.17 0-2.1.88-2.1 1.97 0 1.1.93 1.97 2.1 1.97Z" fill="#81B3D2"/></symbol><symbol id="gift" viewBox="0 0 32 38"><path d="M30.58 11.2h-12.4c6.91-3.44 7.47-5.62 7.22-6.83-.56-1.98-2.85-3.5-4.98-2.69-2.8 1.07-3.56 5.22-4.32 8.2-.96-3.03-1.88-6.88-4.06-8.85A3.7 3.7 0 0 0 9.14 0c-2.03.2-4.92 2.69-3.7 5.47 1.11 2.69 4.82 4.4 7.3 5.78H1.43c-.81 0-1.42.65-1.42 1.41v5.68c0 .8.66 1.42 1.42 1.42h.15V38h28.96V19.77h.05c.81 0 1.42-.66 1.42-1.42v-5.68c0-.8-.66-1.46-1.42-1.46Zm-9.35-8.25c1.07-.15 2.5.66 2.64 1.62.2 1.37-1.67 2.63-2.54 3.2-1.27.85-2.49 1.3-3.65 2.02.4-1.88 1.27-6.54 3.55-6.84ZM9.75 7.91c-1.12-.76-3.25-2.23-3.2-3.9C6.6 2.2 9.45.72 10.97 2.1c1.93 1.67 2.85 5.57 3.56 8.3-1.63-.8-3.15-1.41-4.78-2.48Zm3 28.57h-9.7V19.77h9.7v16.71Zm0-18.23H1.52v-5.52h11.23v5.52Zm5.08 18.23h-3.6V12.73h3.6v23.75Zm11.17 0h-9.65V19.77h9.7v16.71H29Zm1.48-18.23H19.35v-5.52h11.13v5.52Z" fill="#81b3d2"/></symbol><symbol id="house" viewBox="0 0 40 38"><path d="M15.9 33.8h8.35V21.65H15.9V33.8Zm6.84-1.47h-5.32v-9.2h5.27v9.2h.05Z" fill="#81B3D2"/><path d="m38.4 20.63 1.1-1.07-5.17-5.04V.8h-7.2v6.7L19.97.58.5 19.61l1.1 1.07 4.07-3.97v19.23H3.63v1.48H37v-1.48h-2.66V16.66l4.07 3.97ZM28.64 2.3h4.13v10.74l-4.13-4.02V2.3Zm4.18 33.58H7.23v-20.7L19.97 2.71l12.8 12.46v20.7h.05Z" fill="#81B3D2"/><path d="M16.06 14.42a4.01 4.01 0 0 0 4.02 3.97 4.03 4.03 0 0 0 4.07-3.97 3.98 3.98 0 0 0-4.07-3.92 3.94 3.94 0 0 0-4.02 3.92Zm4.02-2.54a2.59 2.59 0 0 1 2.6 2.54 2.58 2.58 0 0 1-2.6 2.55 2.59 2.59 0 0 1-2.61-2.55c0-1.37 1.2-2.54 2.6-2.54Zm-9.19 9.77H9.32v1.98h1.57v-1.98Zm3.08 0H12.4v1.98h1.57v-1.98Zm-3.08 3.05H9.32v1.98h1.57V24.7Zm3.08 0H12.4v1.98h1.57V24.7Zm13.57-3.05h-1.56v1.98h1.56v-1.98Zm3.14 0H29.1v1.98h1.57v-1.98Zm-3.14 3.05h-1.56v1.98h1.56V24.7Zm3.14 0H29.1v1.98h1.57V24.7Z" fill="#81B3D2"/></symbol><symbol id="html-academy" viewBox="0 0 60 60"><path d="M30.2 5H30L10.3 7.1v36.2L30 55l19.7-11.7V7.1L30.2 5zm17 36.8L30 52 12.8 41.8V27l17.1 10.2V39l-11.7-7v1.8L30 40.9v1.9l-11.8-7v1.8l11.8 7 11.9-7.1v-7.6l5.3-3.2v15.1zm-.1-17-4.7 2.8-2.2 1.3-10.3-6.1v1.8l8.8 5.3h-.1l-.2.1-1.3.7-7.3-4.3v1.8l5.8 3.4-1.4.9-4.3-2.6v1.8l2.9 1.7-2.9 1.7-17-10.1 17-10.2 17.2 10zm.1-1.8L29.9 12.8 12.8 23V9.4L30 7.6l17.2 1.8V23z" fill="currentColor"/></symbol><symbol id="like" viewBox="0 0 23 21"><path d="m12.964 3.78-.628 3.045-.627 2.625h9.095v2.205L17.773 18.9h-9.41V8.4l4.6-4.62ZM2.09 10.5v8.4-8.4ZM13.8 0 6.9 6.93c-.418.315-.627.84-.627 1.47v10.5c0 1.155.94 2.1 2.09 2.1h9.41c.836 0 1.568-.525 1.882-1.26l3.136-7.455c.105-.21.105-.525.105-.735v-2.1H23c0-1.155-.94-2.1-2.09-2.1h-6.587l1.045-4.83v-.315c0-.42-.209-.84-.418-1.155L13.8 0ZM4.182 8.4H0V21h4.182V8.4Z"/></symbol><symbol id="mail" viewBox="0 0 16 12"><path d="M8 8c-.3 0-.5-.1-1-.3L0 4v7c0 .5.5 1 1 1h14c.5 0 1-.5 1-1V4L9 7.7c-.5.2-.7.3-1 .3Zm7-8H1C.5 0 0 .5 0 1v.8L8 6l8-4.2V1c0-.5-.5-1-1-1Z"/></symbol><symbol id="phone" viewBox="0 0 18 18"><path d="M3.6 7.8c1.4 2.8 3.8 5.1 6.6 6.6l2.2-2.2c.3-.3.7-.4 1-.2 1.1.4 2.3.6 3.6.6.6 0 1 .4 1 1V17c0 .6-.4 1-1 1C7.6 18 0 10.4 0 1c0-.6.4-1 1-1h3.5c.6 0 1 .4 1 1 0 1.2.2 2.4.6 3.6.1.3 0 .7-.2 1L3.6 7.8Z"/></symbol><symbol id="tg" viewBox="0 0 24 24"><path d="m22.44 4.62-3.17 14.95c-.24 1.05-.86 1.31-1.75.82l-4.83-3.56-2.33 2.24c-.25.26-.47.47-.97.47l.35-4.91 8.95-8.09c.39-.35-.09-.54-.6-.2L7.01 13.32l-4.76-1.49c-1.04-.32-1.05-1.03.22-1.53L21.1 3.11c.87-.32 1.62.2 1.34 1.51Z" fill="#fff"/></symbol><symbol id="vk" viewBox="0 0 24 14"><path fill-rule="evenodd" clip-rule="evenodd" d="M23.45.95c.17-.55 0-.95-.8-.95h-2.62c-.67 0-.98.35-1.14.73 0 0-1.34 3.2-3.23 5.27-.61.6-.89.8-1.22.8-.17 0-.42-.2-.42-.74V.95c0-.66-.18-.95-.74-.95H9.15c-.42 0-.67.3-.67.6 0 .61.95.76 1.05 2.5v3.8c0 .84-.16.99-.5.99-.88 0-3.05-3.21-4.33-6.89-.25-.71-.5-1-1.17-1H.9C.15 0 0 .35 0 .73c0 .68.89 4.07 4.14 8.55C6.32 12.34 9.38 14 12.15 14c1.67 0 1.88-.37 1.88-1v-2.32c0-.73.16-.88.69-.88.38 0 1.05.2 2.61 1.67C19.11 13.22 19.4 14 20.41 14h2.62c.75 0 1.13-.37.91-1.1-.24-.72-1.09-1.77-2.21-3.02-.62-.7-1.54-1.47-1.81-1.86-.4-.49-.28-.7 0-1.14 0 0 3.2-4.43 3.53-5.93Z" fill="#fff"/></symbol><symbol id="yt" viewBox="0 0 24 24"><path d="M19.18 5H4.81C3.31 5 2 6.3 2 7.8v8.3C2 17.7 3.3 19 4.81 19h14.37A2.8 2.8 0 0 0 22 16.2V7.8c.1-1.5-1.2-2.8-2.8-2.8ZM9.03 15.4V8.6l6.84 3.4-6.84 3.4Z" fill="#fff"/></symbol></svg>